<?xml version="1.0" standalone="no"?>
<!DOCTYPE svg PUBLIC "-//W3C//DTD SVG 20010904//EN"
 "http://www.w3.org/TR/2001/REC-SVG-20010904/DTD/svg10.dtd">
<svg version="1.0" xmlns="http://www.w3.org/2000/svg"
 width="512.000000pt" height="512.000000pt" viewBox="0 0 512.000000 512.000000"
 preserveAspectRatio="xMidYMid meet">

<g transform="translate(0.000000,512.000000) scale(0.100000,-0.100000)"
fill="#000000" stroke="none">
<path d="M0 2560 l0 -2560 2560 0 2560 0 0 2334 c0 1842 -3 2335 -13 2339 -9
4 -9 6 1 6 7 1 12 16 12 42 0 24 -4 38 -10 34 -5 -3 -10 -2 -10 4 0 5 4 12 9
15 11 7 9 32 -4 43 -4 4 -5 3 -2 -3 4 -7 0 -15 -8 -18 -12 -4 -13 -2 -5 13 5
11 15 22 22 24 8 3 6 6 -4 6 -10 1 -18 6 -18 12 0 6 8 8 18 5 16 -6 16 -5 0 8
-19 14 -25 32 -8 21 5 -3 3 10 -5 28 -13 32 -13 37 5 57 19 22 17 55 -3 43 -8
-5 -7 -8 1 -11 14 -4 6 -22 -10 -22 -6 0 -8 3 -5 7 4 3 2 12 -4 20 -9 10 -8
13 0 13 7 0 10 4 6 9 -3 5 0 13 6 17 8 4 9 3 5 -4 -5 -8 -2 -10 8 -6 22 8 9
26 -14 19 -11 -4 -20 1 -24 11 -5 14 -4 15 8 5 10 -8 16 -9 21 -1 8 13 -3 32
-15 25 -5 -3 -12 0 -16 6 -4 8 -3 9 4 5 7 -4 12 -2 12 3 0 8 -759 11 -2540 11
l-2540 0 0 -2560z m5064 2484 c3 -8 2 -12 -4 -9 -6 3 -10 10 -10 16 0 14 7 11
14 -7z m-3538 -2152 c55 -28 125 -108 148 -168 10 -28 20 -88 23 -139 9 -157
-39 -281 -135 -345 -62 -41 -113 -53 -202 -48 -131 8 -224 78 -267 201 -25 71
-24 262 1 327 35 92 96 154 183 186 57 21 196 14 249 -14z m1538 7 c89 -33
166 -134 166 -218 0 -21 -3 -22 -87 -19 l-88 3 -3 32 c-11 108 -172 123 -218
20 -26 -57 -27 -273 -1 -330 44 -101 217 -76 217 32 0 20 6 21 91 21 l92 0 -7
-42 c-15 -94 -88 -169 -191 -198 -27 -7 -76 -11 -123 -8 -130 7 -208 63 -256
182 -29 73 -30 277 -1 355 32 87 104 157 185 182 52 15 168 10 224 -12z
m-2044 -54 l0 -65 -150 0 -150 0 0 -85 0 -85 140 0 140 0 0 -65 0 -65 -140 0
-140 0 0 -140 0 -140 -90 0 -90 0 0 355 0 355 240 0 240 0 0 -65z m1071 -175
c42 -130 79 -228 82 -220 6 13 31 92 133 413 l16 47 119 0 119 0 0 -355 0
-355 -96 0 -97 0 7 148 c3 81 9 185 12 232 4 47 4 83 2 80 -3 -3 -40 -108 -83
-233 l-78 -228 -61 3 -61 3 -77 225 -78 225 7 -227 6 -228 -92 0 -91 0 0 355
0 356 117 -3 117 -3 77 -235z m1399 100 l0 -140 120 0 120 0 0 140 0 140 90 0
90 0 0 -355 0 -355 -90 0 -90 0 0 150 0 150 -120 0 -120 0 0 -150 0 -150 -90
0 -90 0 0 355 0 355 90 0 90 0 0 -140z m729 -102 c36 -131 67 -238 71 -238 3
0 35 108 70 240 l65 240 102 0 102 0 -119 -351 c-66 -193 -120 -353 -120 -355
0 -2 -45 -4 -99 -4 l-99 0 -116 348 c-64 191 -116 351 -116 355 0 4 44 6 97 5
l98 -3 64 -237z"/>
<path d="M1332 2775 c-55 -24 -77 -87 -77 -220 0 -95 3 -117 23 -157 27 -55
76 -83 127 -74 42 8 91 63 102 113 12 57 9 213 -5 254 -27 77 -102 115 -170
84z"/>
<path d="M5102 4936 c7 -8 15 -12 17 -11 5 6 -10 25 -20 25 -5 0 -4 -6 3 -14z"/>
</g>
</svg>
